<?xml version="1.0" encoding="UTF-8"?>
<svg id="_0" data-name="0" xmlns="http://www.w3.org/2000/svg" viewBox="0 0 140 86.8">
  <defs>
    <style>
      .cls-1 {
        stroke: #006d7f;
        stroke-miterlimit: 10;
        stroke-width: .75px;
      }

      .cls-1, .cls-2 {
        fill: #006d7f;
      }
    </style>
  </defs>
  <g id="LWPOLYLINE">
    <path class="cls-2" d="M85.45,17.8c-.2-.22-.4-.43-.61-.64-10.28,8.71-22.51,14.81-35.64,17.8.19,1.32.5,2.63.94,3.89,13.33-3.98,25.47-11.22,35.32-21.05Z"/>
  </g>
  <g id="LWPOLYLINE-2" data-name="LWPOLYLINE">
    <path class="cls-2" d="M49.01,31.03c12.68-2.07,24.72-7.03,35.18-14.49-8.54-7.85-21.82-7.28-29.67,1.26-3.33,3.63-5.28,8.31-5.51,13.23Z"/>
  </g>
  <g id="LWPOLYLINE-3" data-name="LWPOLYLINE">
    <path class="cls-2" d="M51.85,42.59c13.25-5.02,25.01-13.32,34.2-24.11.2.24.4.48.59.73-8.32,11.52-19.44,20.74-32.3,26.8-.94-1.05-1.78-2.2-2.49-3.42Z"/>
  </g>
  <g id="LWPOLYLINE-4" data-name="LWPOLYLINE">
    <path class="cls-2" d="M87.83,20.93c-6.17,12.08-15.16,22.48-26.22,30.33-1.42-.62-2.76-1.39-4.01-2.3,12.14-7.03,22.32-16.98,29.62-28.95.21.3.41.61.61.92Z"/>
  </g>
  <g id="LWPOLYLINE-5" data-name="LWPOLYLINE">
    <path class="cls-2" d="M66.3,52.68c9.62-8.4,17.2-18.88,22.16-30.65,2.26,4.18,3.03,8.99,2.2,13.67-2.04,11.42-12.94,19.02-24.36,16.98Z"/>
  </g>
  <path class="cls-1" d="M15.51,74.71c-2.86,0-3.85-1.94-3.85-4.59,0-.79.08-1.66.24-2.56.65-3.86,1.92-6.71,5.9-6.71h4.31l-.25,1.51h-3.81c-2.78,0-3.97,1.64-4.61,5.41-.16.91-.24,1.7-.24,2.38,0,2.1.84,3.07,2.91,3.07h4.05l-.25,1.51h-4.39Z"/>
  <path class="cls-1" d="M31.54,66.55c0,.7-.08,1.48-.23,2.39-.78,4.55-2.14,5.91-5.65,5.91-2.79,0-4.09-1.09-4.09-3.87,0-.68.08-1.48.23-2.38.78-4.55,2.17-5.91,5.65-5.91,2.81,0,4.09,1.09,4.09,3.85ZM22.88,71c0,1.88.8,2.56,2.86,2.56,2.71,0,3.65-1.19,4.26-4.79.15-.87.23-1.6.23-2.21,0-1.88-.8-2.58-2.86-2.58-2.71,0-3.65,1.2-4.26,4.79-.15.88-.23,1.61-.23,2.22Z"/>
  <path class="cls-1" d="M40.95,73.36c-.16,1-.67,1.49-1.35,1.49-.52,0-.9-.2-1.14-.93l-2.96-8.96c-.07-.2-.14-.29-.23-.29-.05,0-.2.07-.25.34l-1.66,9.71h-1.24l1.81-10.61c.19-1.09.84-1.41,1.38-1.41.69,0,.97.41,1.12.87l3,9.03c.04.14.07.29.2.29.16,0,.2-.19.22-.29l1.66-9.76h1.24l-1.8,10.52Z"/>
  <path class="cls-1" d="M46.41,74.71l1.81-10.59h-3.86l.22-1.29h8.98l-.22,1.29h-3.86l-1.81,10.59h-1.27Z"/>
  <path class="cls-1" d="M55.09,64.63c.22-1.27.67-1.8,1.7-1.8h4.28c1.38,0,1.96.95,1.96,2.44,0,.41-.04.85-.12,1.32-.38,2.27-1.02,3.61-2.81,3.61h-1.54v.08s3.13,4.41,3.13,4.41h-1.69l-2.93-4.17c-.12-.17-.25-.37-.25-.61,0-.05,0-.08.01-.14l.04-.27c.07-.36.31-.59.68-.59h2.33c1.16,0,1.46-1.05,1.7-2.49.08-.42.12-.8.12-1.12,0-.76-.3-1.19-1.21-1.19h-3.39c-.44,0-.71.17-.82.81l-1.68,9.77h-1.27l1.73-10.08Z"/>
  <path class="cls-1" d="M68.71,64.01c.42-.83.75-1.31,1.47-1.31s1.02.49,1.16,1.31l1.78,10.71h-1.28l-.53-3.22h-5.05l-1.61,3.22h-1.38l5.44-10.71ZM66.86,70.2h4.29l-.86-5.45c-.04-.24-.09-.58-.24-.58-.16,0-.3.34-.42.58l-2.77,5.45Z"/>
  <path class="cls-1" d="M74.86,74.71l2.03-11.88h1.27l-2.03,11.88h-1.27Z"/>
  <path class="cls-1" d="M79.48,74.71c-.6,0-1.01-.37-1.01-1.05,0-.12.01-.24.04-.37l1.78-10.45h1.27l-1.69,9.88c-.01.1-.03.2-.03.29,0,.3.14.42.5.42h5.29l-.22,1.29h-5.94Z"/>
  <path class="cls-1" d="M90.94,74.71c-2.7,0-3.63-1.83-3.63-4.33,0-.75.08-1.57.23-2.41.61-3.64,1.81-6.33,5.56-6.33h4.06l-.24,1.42h-3.6c-2.62,0-3.75,1.55-4.35,5.1-.15.86-.23,1.61-.23,2.24,0,1.98.79,2.89,2.74,2.89h3.82l-.24,1.42h-4.14Z"/>
  <path class="cls-1" d="M102.2,64.01c.42-.83.75-1.31,1.47-1.31s1.02.49,1.16,1.31l1.78,10.71h-1.28l-.53-3.22h-5.05l-1.61,3.22h-1.38l5.44-10.71ZM100.35,70.2h4.29l-.86-5.45c-.04-.24-.09-.58-.24-.58-.16,0-.3.34-.42.58l-2.77,5.45Z"/>
  <path class="cls-1" d="M108.46,73.42h5.33c.72,0,1.13-.63,1.31-1.66.03-.17.05-.34.05-.49,0-.46-.19-.9-.85-1.19l-3.51-1.56c-.76-.34-1.2-1.05-1.2-2.19,0-.27.01-.56.07-.88.29-1.7.99-2.61,2.64-2.61h5.16l-.22,1.29h-4.93c-.72,0-1.16.42-1.35,1.53-.03.2-.07.41-.07.59,0,.42.16.83.7,1.07l3.35,1.49c.87.39,1.51,1,1.51,2.29,0,.25,0,.53-.05.83-.27,1.61-.87,2.78-2.48,2.78h-5.68l.22-1.29Z"/>
  <path class="cls-1" d="M121.18,74.71l1.81-10.59h-3.86l.22-1.29h8.98l-.22,1.29h-3.86l-1.81,10.59h-1.27Z"/>
</svg>