<?xml version="1.0" encoding="UTF-8"?>
<svg id="_0" data-name="0" xmlns="http://www.w3.org/2000/svg" viewBox="0 0 140 86.8">
  <defs>
    <style>
      .cls-1 {
        fill: #3c6e7d;
      }
    </style>
  </defs>
  <g>
    <g id="LWPOLYLINE">
      <path class="cls-1" d="M85.45,17.8c-.2-.22-.4-.43-.61-.64-10.28,8.71-22.51,14.81-35.64,17.8.19,1.32.5,2.63.94,3.89,13.33-3.98,25.47-11.22,35.32-21.05Z"/>
    </g>
    <g id="LWPOLYLINE-2" data-name="LWPOLYLINE">
      <path class="cls-1" d="M49.01,31.03c12.68-2.07,24.72-7.03,35.18-14.49-8.54-7.85-21.82-7.28-29.67,1.26-3.33,3.63-5.28,8.31-5.51,13.23Z"/>
    </g>
    <g id="LWPOLYLINE-3" data-name="LWPOLYLINE">
      <path class="cls-1" d="M51.85,42.59c13.25-5.02,25.01-13.32,34.2-24.11.2.24.4.48.59.73-8.32,11.52-19.44,20.74-32.3,26.8-.94-1.05-1.78-2.2-2.49-3.42Z"/>
    </g>
    <g id="LWPOLYLINE-4" data-name="LWPOLYLINE">
      <path class="cls-1" d="M87.83,20.93c-6.17,12.08-15.16,22.48-26.22,30.33-1.42-.62-2.76-1.39-4.01-2.3,12.14-7.03,22.32-16.98,29.62-28.95.21.3.41.61.61.92Z"/>
    </g>
    <g id="LWPOLYLINE-5" data-name="LWPOLYLINE">
      <path class="cls-1" d="M66.3,52.68c9.62-8.4,17.2-18.88,22.16-30.65,2.26,4.18,3.03,8.99,2.2,13.67-2.04,11.42-12.94,19.02-24.36,16.98Z"/>
    </g>
  </g>
  <g>
    <path class="cls-1" d="M14.01,69.8c0-.64.08-1.42.23-2.31.63-3.72,1.71-5.04,4.15-5.04h4.22l.41-2.45h-4.87c-4.55,0-5.77,3.61-6.37,7.13-.16.91-.25,1.82-.25,2.65,0,4.2,2.35,5.08,4.32,5.08h4.79l.41-2.45h-4.61c-1.76,0-2.44-.73-2.44-2.62Z"/>
    <path class="cls-1" d="M28.29,61.86c-3.77,0-5.32,1.6-6.12,6.32-.16.97-.24,1.77-.24,2.46,0,2.97,1.45,4.35,4.56,4.35,3.77,0,5.32-1.6,6.12-6.33.16-1,.24-1.79.24-2.48,0-2.96-1.45-4.34-4.56-4.34ZM30.38,68.35c-.59,3.47-1.41,4.42-3.81,4.42-1.84,0-2.4-.49-2.4-2.1,0-.56.07-1.25.23-2.15.59-3.47,1.41-4.42,3.81-4.42,1.81,0,2.4.52,2.4,2.12,0,.56-.07,1.26-.22,2.14Z"/>
    <path class="cls-1" d="M41.35,71.17l-2.69-8.12c-.26-.79-.78-1.19-1.56-1.19-.74,0-1.61.47-1.84,1.8l-1.91,11.2h2.19l1.58-9.27,2.68,8.15c.28.85.8,1.26,1.59,1.26.45,0,1.54-.18,1.81-1.89l1.89-11.11h-2.19l-1.56,9.18Z"/>
    <polygon class="cls-1" points="56.4 62 46.46 62 46.08 64.23 49.94 64.23 48.12 74.86 50.34 74.86 52.16 64.23 56.02 64.23 56.4 62"/>
    <path class="cls-1" d="M62.86,70.35c2.29,0,2.92-1.93,3.27-4.02.09-.5.13-.98.13-1.41,0-2.54-1.52-2.92-2.43-2.92h-4.28c-1.58,0-1.98,1.11-2.17,2.2l-1.83,10.67h2.22l1.74-10.21c.07-.43.16-.43.36-.43h3.4c.63,0,.75.19.75.72,0,.29-.04.64-.12,1.05-.27,1.62-.56,2.12-1.24,2.12h-2.33c-.58,0-1.03.38-1.15,1l-.04.25c-.02.1-.02.17-.02.23,0,.38.18.67.33.88l3.07,4.39h2.23l.11-.21.15-.29-2.85-4.01h.71Z"/>
    <path class="cls-1" d="M72.95,61.86c-1.02,0-1.46.71-1.89,1.57l-5.51,10.89-.12.24-.12.24-.04.07h2.43l1.61-3.24h4.37l.53,3.24h2.23l-1.88-11.3c-.19-1.13-.73-1.7-1.62-1.7ZM70.39,69.39l2.28-4.5.71,4.5h-2.99Z"/>
    <polygon class="cls-1" points="79.27 62 77.08 74.86 79.3 74.86 81.49 62 79.27 62"/>
    <path class="cls-1" d="M83.59,72.46l1.79-10.47h-2.22l-1.85,10.87c-.03.17-.05.32-.05.47,0,.91.59,1.53,1.48,1.53h6.35l.38-2.23h-5.88c0-.06.01-.12.02-.17Z"/>
    <path class="cls-1" d="M94.77,72.5c-1.66,0-2.28-.66-2.28-2.44,0-.61.07-1.34.22-2.17.59-3.49,1.61-4.73,3.89-4.73h4l.4-2.36h-4.62c-4.31,0-5.47,3.41-6.03,6.74-.15.87-.23,1.71-.23,2.5,0,3.98,2.23,4.82,4.1,4.82h3.13l.11-.21,1.09-2.15h-3.77Z"/>
    <path class="cls-1" d="M109.68,65.01c-.07.4-.07.74-.07.96,0,1.63.8,2.33,1.48,2.63l3.52,1.57c.5.22.57.51.57.76,0,.12-.02.26-.05.42-.22,1.28-.69,1.28-.85,1.28h-5.12l.36,2.16v.08h4.9c2.16,0,2.71-1.82,2.94-3.18.06-.35.06-.65.06-.92,0-1.73-1.02-2.38-1.79-2.73l-3.36-1.5c-.29-.13-.42-.32-.42-.65,0-.1.02-.23.04-.36l.02-.15c.2-1.15.61-1.15.89-1.15h4.86v-.08s.38-2.15.38-2.15h-5.25c-2.33,0-2.89,1.72-3.11,3.02Z"/>
    <path class="cls-1" d="M108.64,72.4l-.04-.23-1.43-8.6c-.19-1.13-.73-1.7-1.62-1.7-1.01,0-1.46.71-1.89,1.57l-4.35,8.6-.12.23-.12.23-1.2,2.36h2.43l1.61-3.24h4.37l.53,3.24h2.23l-.37-2.23-.04-.23ZM102.98,69.39l2.28-4.5.71,4.5h-2.99Z"/>
    <polygon class="cls-1" points="118.99 62 118.75 62 118.52 62 118.14 64.23 118.38 64.23 118.61 64.23 122 64.23 120.18 74.86 122.4 74.86 124.22 64.23 128.08 64.23 128.46 62 118.99 62"/>
  </g>
</svg>